<?xml version="1.0" standalone="no"?>
<!DOCTYPE svg PUBLIC "-//W3C//DTD SVG 20010904//EN"
 "http://www.w3.org/TR/2001/REC-SVG-20010904/DTD/svg10.dtd">
<svg version="1.0" xmlns="http://www.w3.org/2000/svg"
 width="1020.000000pt" height="1020.000000pt" viewBox="0 0 1020.000000 1020.000000"
 preserveAspectRatio="xMidYMid meet">
<metadata>
Created by potrace 1.14, written by Peter Selinger 2001-2017
</metadata>
<g transform="translate(0.000000,1020.000000) scale(0.100000,-0.100000)"
fill="#000000" stroke="none">
<path d="M3540 7929 c-100 -27 -144 -44 -213 -83 -89 -51 -115 -71 -221 -174
-174 -170 -307 -365 -460 -677 -165 -335 -342 -846 -447 -1290 -6 -22 -14 -56
-18 -75 -29 -117 -58 -247 -81 -365 -7 -33 -16 -80 -21 -105 -30 -151 -72
-401 -100 -595 -93 -656 -140 -1255 -155 -1998 l-7 -317 410 0 410 0 7 428
c13 825 65 1660 146 2320 5 45 14 117 19 160 12 98 38 281 50 352 6 30 15 89
21 130 13 85 47 275 60 335 4 22 14 67 20 100 22 113 62 291 80 360 5 17 13
48 19 70 27 105 117 392 140 450 5 11 13 31 18 45 29 71 137 288 164 326 53
77 138 161 187 185 62 30 151 30 207 2 124 -64 245 -229 350 -478 10 -22 23
-53 30 -70 8 -16 23 -59 35 -95 12 -36 25 -74 29 -85 9 -22 41 -126 61 -195 7
-25 16 -56 20 -70 13 -41 44 -164 60 -235 6 -27 15 -66 20 -85 5 -19 12 -51
15 -70 4 -19 11 -53 16 -75 5 -22 14 -67 20 -100 6 -33 14 -80 19 -105 9 -46
23 -130 41 -235 10 -59 20 -129 38 -262 5 -38 16 -117 24 -178 8 -60 20 -157
26 -215 7 -58 16 -143 21 -190 51 -469 86 -1089 98 -1740 l7 -375 406 -3 406
-2 7 312 c18 778 41 1203 96 1768 43 443 111 915 180 1255 4 22 13 65 19 95
13 63 29 139 42 190 37 154 47 192 58 233 17 58 30 104 42 145 6 20 13 49 16
65 3 15 9 30 14 33 5 3 9 16 9 29 0 13 5 27 10 30 6 3 10 15 10 26 0 19 4 28
28 76 7 13 12 27 12 33 0 20 109 248 158 331 65 110 160 206 245 249 15 7 56
14 91 14 50 0 72 -6 109 -27 113 -66 209 -199 310 -427 49 -110 112 -289 148
-420 6 -19 14 -48 19 -65 16 -57 71 -270 81 -320 6 -27 15 -66 19 -85 14 -63
51 -244 61 -297 5 -29 14 -79 19 -110 15 -79 29 -167 40 -238 57 -399 63 -445
90 -680 42 -376 79 -840 100 -1255 22 -442 30 -699 30 -1023 l0 -337 405 0
405 0 0 196 c0 257 -25 818 -50 1129 -30 361 -41 471 -81 787 -18 149 -62 440
-79 533 -5 28 -14 79 -20 115 -7 36 -16 85 -21 110 -17 84 -42 205 -49 245 -9
51 -38 179 -50 225 -5 19 -19 76 -31 125 -11 50 -25 104 -30 120 -5 17 -31
109 -59 205 -178 631 -430 1181 -680 1485 -230 279 -428 401 -666 412 -468 22
-904 -441 -1259 -1338 -56 -142 -177 -495 -190 -556 -4 -18 -13 -33 -20 -33
-7 0 -17 15 -20 33 -4 17 -38 124 -75 237 -203 616 -449 1076 -725 1356 -156
158 -308 250 -488 293 -56 13 -207 13 -257 0z"/>
</g>
</svg>
